<?xml version="1.0" encoding="UTF-8" standalone="no"?>
<!-- Created with Inkscape (http://www.inkscape.org/) -->

<svg
   xmlns:dc="http://purl.org/dc/elements/1.1/"
   xmlns:cc="http://creativecommons.org/ns#"
   xmlns:rdf="http://www.w3.org/1999/02/22-rdf-syntax-ns#"
   xmlns:svg="http://www.w3.org/2000/svg"
   xmlns="http://www.w3.org/2000/svg"
   xmlns:sodipodi="http://sodipodi.sourceforge.net/DTD/sodipodi-0.dtd"
   xmlns:inkscape="http://www.inkscape.org/namespaces/inkscape"
   width="744.09448"
   height="524.40942"
   id="svg3777"
   version="1.1"
   inkscape:version="0.48.4 r9939"
   sodipodi:docname="Neues Dokument 4">
  <defs
     id="defs3779" />
  <sodipodi:namedview
     id="base"
     pagecolor="#ffffff"
     bordercolor="#666666"
     borderopacity="1.0"
     inkscape:pageopacity="0.0"
     inkscape:pageshadow="2"
     inkscape:zoom="0.35"
     inkscape:cx="28.109318"
     inkscape:cy="460.44432"
     inkscape:document-units="px"
     inkscape:current-layer="layer1"
     showgrid="false"
     inkscape:window-width="1366"
     inkscape:window-height="705"
     inkscape:window-x="-8"
     inkscape:window-y="-8"
     inkscape:window-maximized="1" />
  <metadata
     id="metadata3782">
    <rdf:RDF>
      <cc:Work
         rdf:about="">
        <dc:format>image/svg+xml</dc:format>
        <dc:type
           rdf:resource="http://purl.org/dc/dcmitype/StillImage" />
        <dc:title></dc:title>
      </cc:Work>
    </rdf:RDF>
  </metadata>
  <g
     inkscape:label="Ebene 1"
     inkscape:groupmode="layer"
     id="layer1"
     transform="translate(0,-527.95272)">
    <rect
       style="opacity:0.98999999;fill:#00ff00;fill-opacity:0;stroke:#000000;stroke-width:5;stroke-linecap:square;stroke-miterlimit:4;stroke-opacity:1;stroke-dasharray:none"
       id="rect3785"
       width="695.71429"
       height="474.28571"
       x="30"
       y="30.123709"
       transform="translate(0,527.95272)" />
    <rect
       style="opacity:0.98999999;fill:#00ff00;fill-opacity:0;stroke:#000000;stroke-width:3.02745533;stroke-linecap:square;stroke-miterlimit:4;stroke-opacity:1;stroke-dasharray:none"
       id="rect3787"
       width="696.25824"
       height="36.258255"
       x="29.013727"
       y="557.09015" />
    <rect
       style="opacity:0.98999999;fill:#00ff00;fill-opacity:0;stroke:#000000;stroke-width:5.08915949;stroke-linecap:square;stroke-miterlimit:4;stroke-opacity:1;stroke-dasharray:none"
       id="rect3789"
       width="134.19656"
       height="401.33942"
       x="30.901724"
       y="630.97815" />
    <rect
       style="opacity:0.98999999;fill:#00ff00;fill-opacity:0;stroke:#000000;stroke-width:3.02745533;stroke-linecap:square;stroke-miterlimit:4;stroke-opacity:1;stroke-dasharray:none"
       id="rect3787-7"
       width="696.25824"
       height="36.258255"
       x="29.29945"
       y="593.66156" />
    <rect
       style="opacity:0.98999999;fill:#00ff00;fill-opacity:0;stroke:#000000;stroke-width:5;stroke-linecap:square;stroke-miterlimit:4;stroke-opacity:1;stroke-dasharray:none"
       id="rect3809"
       width="42.857143"
       height="32.857143"
       x="682.85712"
       y="31.55228"
       transform="translate(0,527.95272)" />
    <rect
       style="opacity:0.98999999;fill:#00ff00;fill-opacity:0;stroke:#000000;stroke-width:5;stroke-linecap:square;stroke-miterlimit:4;stroke-opacity:1;stroke-dasharray:none"
       id="rect3809-4"
       width="42.857143"
       height="32.857143"
       x="638.60815"
       y="559.48376" />
    <rect
       style="opacity:0.98999999;fill:#00ff00;fill-opacity:0;stroke:#000000;stroke-width:5;stroke-linecap:square;stroke-miterlimit:4;stroke-opacity:1;stroke-dasharray:none"
       id="rect3809-0"
       width="42.857143"
       height="32.857143"
       x="596.60815"
       y="559.48376" />
    <path
       style="opacity:0.98999999;fill:#00ff00;fill-opacity:0;stroke:#000000;stroke-width:5;stroke-linecap:square;stroke-miterlimit:4;stroke-opacity:1;stroke-dasharray:none"
       id="path3842"
       d="m 689.64905,39.843398 c 0.64016,0.617598 1.33948,1.170816 2.04864,1.70625 0.50247,0.371376 0.91244,0.812939 1.26969,1.322275 0.40935,0.461776 0.79209,0.939108 1.24256,1.362466 0.78653,0.570062 1.65324,1.035755 2.51572,1.481911 1.09329,0.663908 2.21829,1.270247 3.32352,1.913156 0.86273,0.56236 1.72031,1.136006 2.52993,1.773499 0.61448,0.601401 1.39052,0.968808 2.1106,1.416653 0.56197,0.45432 1.15129,0.864916 1.76193,1.25101 0.54292,0.335149 1.05064,0.719854 1.65049,0.947359 0.72321,0.289117 1.39495,0.684474 2.08471,1.041261 0.87441,0.366698 1.74516,0.738996 2.62115,1.101781 1.01629,0.416135 2.07027,0.711661 3.09499,1.107158 0.14884,0.05215 0.29769,0.104296 0.44654,0.156444 0,0 -0.29084,0.196637 -0.29084,0.196637 l 0,0 c -0.14891,-0.05253 -0.29783,-0.105066 -0.44674,-0.157599 -1.02464,-0.396094 -2.07965,-0.68991 -3.09546,-1.107883 -0.87649,-0.36418 -1.74977,-0.733061 -2.62352,-1.103785 -0.68849,-0.357478 -1.36104,-0.749614 -2.084,-1.036999 -0.59957,-0.232491 -1.10958,-0.617474 -1.65416,-0.953352 -0.60939,-0.3876 -1.19819,-0.798632 -1.76127,-1.251036 -0.72175,-0.447298 -1.49545,-0.819952 -2.11153,-1.42069 -0.8087,-0.635747 -1.66424,-1.209494 -2.52589,-1.770269 -1.10493,-0.642503 -2.22826,-1.250998 -3.32297,-1.91148 -0.86475,-0.448759 -1.73659,-0.913044 -2.52327,-1.488619 -0.45195,-0.425051 -0.83705,-0.904034 -1.24723,-1.368073 -0.35534,-0.506062 -0.76318,-0.944513 -1.26249,-1.31382 -0.70832,-0.537451 -1.40692,-1.091502 -2.05056,-1.706156 0,0 0.29946,-0.188099 0.29946,-0.188099 z"
       inkscape:connector-curvature="0"
       transform="translate(0,527.95272)" />
    <path
       style="opacity:0.98999999;fill:#00ff00;fill-opacity:0;stroke:#000000;stroke-width:5;stroke-linecap:square;stroke-miterlimit:4;stroke-opacity:1;stroke-dasharray:none"
       id="path3844"
       d="m 691.12093,56.447252 c 0.78653,-0.640325 1.61152,-1.232653 2.44465,-1.810631 0.85358,-0.537446 1.70036,-1.081852 2.57662,-1.581927 0.7102,-0.34139 1.4393,-0.640808 2.1474,-0.986389 0.62152,-0.395313 1.23467,-0.833614 1.79768,-1.315409 0.54465,-0.470716 1.19329,-0.828766 1.76512,-1.179233 0.72515,-0.488204 1.48948,-0.888185 2.33383,-1.118858 0.92862,-0.273446 1.85924,-0.532697 2.76398,-0.879558 1.02188,-0.365575 2.08562,-0.602592 3.06726,-1.071851 0.80806,-0.417022 1.65684,-0.715462 2.51162,-1.015168 0.6448,-0.304834 1.28111,-0.649588 1.88885,-1.02459 0.57989,-0.354157 1.0338,-0.819792 1.43025,-1.364446 0.29262,-0.528842 0.52383,-1.086527 0.87141,-1.5832 0,0 0.32423,-0.14074 0.32423,-0.14074 l 0,0 c -0.3543,0.492386 -0.58397,1.05162 -0.87128,1.583439 -0.39319,0.550348 -0.84709,1.018953 -1.4262,1.378727 -0.81957,0.475255 -1.63027,0.977683 -2.49484,1.367086 -0.85513,0.297208 -1.70008,0.603704 -2.50861,1.017578 -0.98427,0.462564 -2.04747,0.700927 -3.06821,1.069128 -0.90624,0.344908 -1.83794,0.604583 -2.76742,0.877998 -0.63466,0.177524 -1.22136,0.385558 -1.72559,0.777137 -0.6049,0.367634 -1.22675,0.714491 -1.76837,1.174329 -0.73493,0.637619 -1.55857,1.180607 -2.39889,1.667232 -0.70906,0.342946 -1.43743,0.643339 -2.14584,0.9879 -0.69596,0.339898 -1.29023,0.87363 -1.97668,1.23244 -0.83227,0.577138 -1.658,1.16666 -2.44277,1.807299 0,0 -0.3282,0.131707 -0.3282,0.131707 z"
       inkscape:connector-curvature="0"
       transform="translate(0,527.95272)" />
    <path
       style="opacity:0.98999999;fill:#00ff00;fill-opacity:0;stroke:#000000;stroke-width:5;stroke-linecap:square;stroke-miterlimit:4;stroke-opacity:1;stroke-dasharray:none"
       id="path3846"
       d="m 649.31858,39.950038 c -0.38757,0.880676 -0.70615,1.795229 -0.98672,2.715723 -0.29635,0.748586 -0.49928,1.519344 -0.60441,2.316325 -0.11977,0.730107 -0.33881,1.43414 -0.5287,2.147082 -0.1783,0.698703 -0.22087,1.419242 -0.24684,2.136667 -0.0178,0.713866 -0.0139,1.428045 -0.0126,2.142067 0.002,0.7143 0.003,1.428602 0.003,2.142904 3.9e-4,0.714291 3.8e-4,1.428582 3.9e-4,2.142872 -0.0682,0.649861 0.17816,1.06518 0.67107,1.45026 0.6857,0.333352 1.46565,0.339106 2.21234,0.369021 0.79281,0.02175 1.58602,0.01559 2.37902,0.01266 0.92169,0.03397 1.83093,-0.02769 2.73444,-0.211668 1.12452,-0.211181 2.23266,-0.495453 3.36355,-0.672737 1.01568,-0.220521 2.0441,-0.358875 3.0573,-0.589388 0.71273,-0.09603 1.38219,-0.356593 2.07935,-0.517387 0.65923,-0.130922 1.33324,-0.144252 2.00289,-0.156593 0.69672,0.0166 1.40111,-0.05737 2.09259,0.04148 0.61542,0.146072 1.23952,0.229636 1.86952,0.275677 0.65258,0.0079 1.33391,0.147646 1.95167,-0.108266 -0.036,0.0046 -0.12119,0.04757 -0.10789,0.01384 0.0712,-0.180652 0.25547,-0.297067 0.34523,-0.469265 0.15543,-0.298146 0.27071,-0.628036 0.38963,-0.941726 0.19883,-0.701477 0.34793,-1.417681 0.50448,-2.130559 0.087,-0.672715 0.20779,-1.329833 0.36451,-1.989376 0.14605,-0.642078 0.17472,-1.30121 0.19543,-1.95684 0.0313,-0.698616 0.12962,-1.41283 0.31115,-2.089622 0.21702,-0.603552 0.31596,-1.231801 0.37109,-1.86772 0.0461,-0.698746 0.0442,-1.399474 0.0452,-2.099392 0.0479,-0.67399 -0.0297,-1.321918 -0.16335,-1.979396 -0.16455,-0.617898 -0.67808,-0.772115 -1.24591,-0.869534 -0.70424,0.01545 -1.39473,0.156855 -2.0732,0.335106 -0.71703,0.199565 -1.45694,0.269307 -2.19733,0.305306 -1.05146,0.03326 -2.10375,0.02574 -3.1556,0.02542 -1.21222,-0.0015 -2.42445,-0.0025 -3.63667,-0.0028 -0.82008,-1.56e-4 -1.64016,-8.2e-5 -2.46024,-4e-5 -0.80125,2.7e-4 -1.6025,-2.88e-4 -2.40375,-3.93e-4 -1.426,0.04621 -2.84248,-0.101048 -4.24206,-0.363529 -1.52455,-0.303145 -3.02992,-0.67684 -4.56954,-0.90136 0,0 0.28531,-0.200994 0.28531,-0.200994 l 0,0 c 1.53868,0.227771 3.04354,0.602929 4.5681,0.904005 1.39996,0.259761 2.81643,0.403065 4.2422,0.355529 0.80162,-1.19e-4 1.60324,-7.11e-4 2.40486,-4.13e-4 0.81957,1.21e-4 1.63913,3.76e-4 2.45869,0.0012 1.21195,0.0012 2.42389,0.0028 3.63584,0.0034 1.05219,3.64e-4 2.10485,0.0069 3.15659,-0.02834 0.73928,-0.03828 1.47767,-0.110564 2.1933,-0.311344 0.68076,-0.177637 1.37617,-0.319486 2.08281,-0.323334 0.58054,0.104716 1.09885,0.276783 1.26807,0.905473 0.13414,0.65975 0.21511,1.309515 0.16605,1.986023 -8.2e-4,0.700746 0.001,1.402264 -0.0436,2.101909 -0.0537,0.637604 -0.14885,1.268744 -0.36819,1.873433 -0.18719,0.672383 -0.28037,1.38702 -0.31505,2.082268 -0.0201,0.657535 -0.0475,1.318636 -0.19182,1.962998 -0.15605,0.659794 -0.2832,1.315397 -0.3655,1.989173 -0.15582,0.714444 -0.30823,1.430935 -0.50216,2.135122 -0.27145,0.723747 -0.48947,1.389125 -1.22473,1.764275 -0.62581,0.236597 -1.30549,0.105967 -1.96062,0.09506 -0.63048,-0.0475 -1.25443,-0.134296 -1.87097,-0.277372 -0.69106,-0.09188 -1.39348,-0.02257 -2.08905,-0.03724 -0.66847,0.01317 -1.34143,0.02787 -1.99879,0.162796 -0.69556,0.16422 -1.36655,0.41815 -2.07809,0.516141 -1.01325,0.229064 -2.0419,0.366975 -3.05749,0.586612 -1.13031,0.179766 -2.2388,0.462805 -3.36316,0.674284 -0.90578,0.179769 -1.81694,0.240389 -2.74008,0.207326 -0.79309,0.0028 -1.58642,0.0086 -2.3793,-0.01439 -0.75261,-0.03143 -1.53984,-0.03873 -2.22658,-0.386046 -0.49627,-0.39351 -0.75483,-0.819508 -0.68568,-1.478665 -10e-6,-0.714284 0,-1.428568 -3.8e-4,-2.142852 -4.8e-4,-0.71429 -0.001,-1.428579 -0.003,-2.142867 -0.001,-0.714414 -0.005,-1.428978 0.0119,-2.143248 0.0253,-0.719644 0.0667,-1.442494 0.2435,-2.143811 0.18837,-0.712175 0.4094,-1.414245 0.53067,-2.142967 0.10345,-0.798999 0.3031,-1.572665 0.60296,-2.322074 0.27954,-0.921794 0.60091,-1.835896 0.9822,-2.720181 0,0 0.32205,-0.145702 0.32205,-0.145702 z"
       inkscape:connector-curvature="0"
       transform="translate(0,527.95272)" />
    <path
       style="opacity:0.98999999;fill:#00ff00;fill-opacity:0;stroke:#000000;stroke-width:5;stroke-linecap:square;stroke-miterlimit:4;stroke-opacity:1;stroke-dasharray:none"
       id="path3848"
       d="m 608.65625,54.305588 c 0.99711,0.0014 1.99422,8.64e-4 2.99133,6.23e-4 0.78743,-2.18e-4 1.57485,-3.22e-4 2.36227,-3.75e-4 0.71449,-3.7e-5 1.42899,-3.4e-5 2.14348,-3.3e-5 0.72052,-0.01673 1.42978,-0.01461 2.14112,0.104061 0.70668,0.137462 1.42348,0.196917 2.14147,0.230668 0.71381,0.02593 1.42824,0.0247 2.14241,0.02495 0.71428,-5.31e-4 1.42857,-0.0015 2.14285,-0.002 0.71429,-4.39e-4 1.42858,-4.82e-4 2.14286,-5.18e-4 0.11905,-3e-6 0.2381,-6e-6 0.35715,-9e-6 0,0 -0.28523,0.207233 -0.28523,0.207233 l 0,0 c -0.11905,3e-6 -0.2381,6e-6 -0.35714,9e-6 -0.71429,3.9e-5 -1.42857,8.6e-5 -2.14285,5.37e-4 -0.7143,5.19e-4 -1.42859,0.0015 -2.14288,0.002 -0.7145,-3.76e-4 -1.42927,6.9e-4 -2.14338,-0.02631 -0.71885,-0.03496 -1.43623,-0.09669 -2.1438,-0.234031 -0.71011,-0.116164 -1.41913,-0.113498 -2.13782,-0.09932 -0.71447,0 -1.42893,3e-6 -2.14339,-3.4e-5 -0.78708,-5.3e-5 -1.57416,-1.57e-4 -2.36124,-3.74e-4 -0.99768,-2.42e-4 -1.99536,-7.94e-4 -2.99305,6.22e-4 0,0 0.28584,-0.20767 0.28584,-0.20767 z"
       inkscape:connector-curvature="0"
       transform="translate(0,527.95272)" />
  </g>
</svg>
