<?xml version="1.0" encoding="UTF-8" standalone="no"?>
<!-- Created with Inkscape (http://www.inkscape.org/) -->

<svg
   xmlns:osb="http://www.openswatchbook.org/uri/2009/osb"
   xmlns:dc="http://purl.org/dc/elements/1.1/"
   xmlns:cc="http://creativecommons.org/ns#"
   xmlns:rdf="http://www.w3.org/1999/02/22-rdf-syntax-ns#"
   xmlns:svg="http://www.w3.org/2000/svg"
   xmlns="http://www.w3.org/2000/svg"
   xmlns:sodipodi="http://sodipodi.sourceforge.net/DTD/sodipodi-0.dtd"
   xmlns:inkscape="http://www.inkscape.org/namespaces/inkscape"
   width="744.09448819"
   height="1052.3622047"
   id="svg2"
   version="1.1"
   inkscape:version="0.48.4 r9939"
   sodipodi:docname="New document 1">
  <defs
     id="defs4">
    <linearGradient
       id="linearGradient5303">
      <stop
         style="stop-color:#ffb600;stop-opacity:1;"
         offset="0"
         id="stop5305" />
      <stop
         id="stop5315"
         offset="0.5"
         style="stop-color:#00b600;stop-opacity:0.49803922;" />
      <stop
         style="stop-color:#ffb400;stop-opacity:0;"
         offset="1"
         id="stop5307" />
    </linearGradient>
    <linearGradient
       id="linearGradient5289"
       osb:paint="solid">
      <stop
         style="stop-color:#ffb600;stop-opacity:1;"
         offset="0"
         id="stop5291" />
    </linearGradient>
    <inkscape:path-effect
       effect="spiro"
       id="path-effect3816"
       is_visible="true" />
  </defs>
  <sodipodi:namedview
     id="base"
     pagecolor="#ffffff"
     bordercolor="#666666"
     borderopacity="1.0"
     inkscape:pageopacity="0.0"
     inkscape:pageshadow="2"
     inkscape:zoom="2.8"
     inkscape:cx="421.00172"
     inkscape:cy="873.33825"
     inkscape:document-units="px"
     inkscape:current-layer="layer1"
     showgrid="false"
     inkscape:window-width="1920"
     inkscape:window-height="1030"
     inkscape:window-x="0"
     inkscape:window-y="25"
     inkscape:window-maximized="1" />
  <metadata
     id="metadata7">
    <rdf:RDF>
      <cc:Work
         rdf:about="">
        <dc:format>image/svg+xml</dc:format>
        <dc:type
           rdf:resource="http://purl.org/dc/dcmitype/StillImage" />
        <dc:title></dc:title>
      </cc:Work>
    </rdf:RDF>
  </metadata>
  <g
     inkscape:label="Layer 1"
     inkscape:groupmode="layer"
     id="layer1">
    <g
       id="g5384">
      <path
         d="m 228.84991,194.55762 c -1e-5,-1.87195 0.67199,-2.80794 2.016,-2.808 0.62399,6e-5 1.19999,0.26406 1.728,0.792 0.57599,0.52805 0.98399,1.03205 1.224,1.512 0.23999,0.48005 0.40799,0.86405 0.504,1.152 0.62399,2.01605 1.29599,9.96004 2.016,23.832 0.71998,13.82401 1.43998,21.33601 2.16,22.536 0.14398,0.28801 0.64798,0.43201 1.512,0.432 1.48798,1e-5 4.58398,-0.50399 9.288,-1.512 4.70397,-1.00799 9.11996,-1.99199 13.248,-2.952 4.17595,-1.00799 6.35995,-1.51199 6.552,-1.512 0.81595,1e-5 1.63195,0.33601 2.448,1.008 0.81595,0.62401 1.22395,1.39201 1.224,2.304 -5e-5,0.72001 -0.55205,1.51201 -1.656,2.376 -1.63205,1.296 -6.40804,2.88 -14.328,4.752 -7.92003,1.824 -14.28002,2.736 -19.08,2.736 -3.36001,0 -5.40001,-1.248 -6.12,-3.744 -0.67201,-2.544 -1.29601,-10.51199 -1.872,-23.904 -0.048,-0.67197 -0.072,-1.17597 -0.072,-1.512 -0.52801,-12.28796 -0.79201,-20.78395 -0.792,-25.488"
         id="path5328"
         style="font-size:72px;font-style:normal;font-variant:normal;font-weight:bold;font-stretch:normal;text-align:start;line-height:125%;letter-spacing:0px;word-spacing:0px;writing-mode:lr-tb;text-anchor:start;fill:#000000;fill-opacity:1;stroke:none;font-family:Purisa;-inkscape-font-specification:Purisa Bold"
         inkscape:connector-curvature="0" />
      <path
         d="m 286.92274,199.94562 c 0.81599,-0.57596 1.60799,-0.86396 2.376,-0.864 0.76799,4e-5 1.41599,0.31204 1.944,0.936 0.76799,1.44004 1.39199,5.61603 1.872,12.528 0.52799,6.91202 0.79199,13.36801 0.792,19.368 -1e-5,4.32 -0.14401,6.768 -0.432,7.344 -0.96001,0.768 -1.99201,1.152 -3.096,1.152 -1.68001,0 -2.712,-0.504 -3.096,-1.512 -0.24,-0.768 -0.624,-5.75999 -1.152,-14.976 -0.48,-9.26397 -0.72,-15.45597 -0.72,-18.576 0,-2.92796 0.504,-4.72796 1.512,-5.4 m -0.792,-16.848 c 0.096,-0.91194 0.48,-1.65594 1.152,-2.232 0.71999,-0.57594 1.41599,-0.86394 2.088,-0.864 0.67199,6e-5 1.53599,0.31206 2.592,0.936 1.05599,0.62406 1.58399,1.46406 1.584,2.52 -10e-6,1.15206 -0.28801,2.18405 -0.864,3.096 -0.57601,0.91205 -1.34401,1.36805 -2.304,1.368 -1.00801,5e-5 -1.96801,-0.45595 -2.88,-1.368 -0.912,-0.95995 -1.368,-2.11194 -1.368,-3.456"
         style="font-size:72px;font-style:normal;font-variant:normal;font-weight:bold;font-stretch:normal;text-align:start;line-height:125%;letter-spacing:0px;word-spacing:0px;writing-mode:lr-tb;text-anchor:start;fill:#000000;fill-opacity:1;stroke:none;font-family:Purisa;-inkscape-font-specification:Purisa Bold"
         id="path5330"
         inkscape:connector-curvature="0" />
      <path
         d="m 313.86648,196.18677 c -1e-5,-2.49596 0.79199,-3.74396 2.376,-3.744 1.05599,0.048 1.75199,0.69604 2.088,1.944 0.33599,1.24804 0.81599,4.75203 1.44,10.512 0.14398,1.29603 0.26398,2.30403 0.36,3.024 l 1.008,8.208 0.792,-2.376 c 1.00798,-3.11998 1.87198,-5.39998 2.592,-6.84 0.76798,-1.43997 2.15998,-3.47997 4.176,-6.12 3.88797,-5.13596 7.17597,-7.70396 9.864,-7.704 1.77596,4e-5 3.31196,0.98404 4.608,2.952 1.53596,2.16003 2.47196,4.32003 2.808,6.48 0.38396,2.16003 0.64796,7.10402 0.792,14.832 0.096,4.89601 0.14396,7.87201 0.144,8.928 -4e-5,3.168 -0.21604,5.328 -0.648,6.48 -0.43204,1.104 -1.32004,1.656 -2.664,1.656 -0.91204,0 -1.51204,-0.24 -1.8,-0.72 -0.28804,-0.528 -0.43204,-1.56 -0.432,-3.096 -4e-5,-0.72 0.048,-2.208 0.144,-4.464 0.096,-2.25599 0.14396,-4.12799 0.144,-5.616 -4e-5,-4.07998 -0.16804,-7.89598 -0.504,-11.448 -0.33604,-3.55197 -0.72004,-5.78397 -1.152,-6.696 -0.19204,-0.38397 -0.43204,-0.74397 -0.72,-1.08 -0.28803,-0.38397 -0.55203,-0.67197 -0.792,-0.864 -0.19203,-0.19197 -0.33603,-0.28797 -0.432,-0.288 -0.76803,3e-5 -2.35203,1.60803 -4.752,4.824 -2.35203,3.21602 -4.34402,6.50402 -5.976,9.864 -1.68002,3.55201 -2.80802,6.14401 -3.384,7.776 -0.52802,1.63201 -0.96002,3.84001 -1.296,6.624 -0.52802,4.464 -0.96002,6.936 -1.296,7.416 -0.24002,0.288 -0.50402,0.432 -0.792,0.432 -0.72002,-0.096 -1.48801,-0.6 -2.304,-1.512 -0.43201,-0.48 -0.76801,-1.08 -1.008,-1.8 -0.19201,-0.768 -0.36001,-1.92 -0.504,-3.456 -0.14401,-1.584 -0.26401,-3.26399 -0.36,-5.04 -0.096,-1.82399 -0.28801,-4.43999 -0.576,-7.848 -0.28801,-3.45598 -0.64801,-7.03198 -1.08,-10.728 -0.57601,-5.75997 -0.86401,-9.26396 -0.864,-10.512"
         style="font-size:72px;font-style:normal;font-variant:normal;font-weight:bold;font-stretch:normal;text-align:start;line-height:125%;letter-spacing:0px;word-spacing:0px;writing-mode:lr-tb;text-anchor:start;fill:#000000;fill-opacity:1;stroke:none;font-family:Purisa;-inkscape-font-specification:Purisa Bold"
         id="path5332"
         inkscape:connector-curvature="0" />
      <path
         d="m 429.85292,221.99134 c -2e-5,-0.57599 0.79198,-1.53599 2.376,-2.88 1.58397,-1.34399 2.39997,-2.20799 2.448,-2.592 -3e-5,-0.19199 -0.14403,-0.45599 -0.432,-0.792 -0.28803,-0.33599 -1.05603,-0.71999 -2.304,-1.152 -1.20002,-0.43198 -2.78402,-0.64798 -4.752,-0.648 -2.11202,2e-5 -3.96002,0.31202 -5.544,0.936 -1.53601,0.62401 -2.68801,1.39201 -3.456,2.304 -0.76801,0.91201 -1.32001,1.75201 -1.656,2.52 -0.33601,0.76801 -0.50401,1.44001 -0.504,2.016 -1e-5,0.96001 0.072,1.58401 0.216,1.872 0.19199,0.24001 0.64799,0.52801 1.368,0.864 1.05599,0.432 1.94399,0.648 2.664,0.648 1.05599,0 2.37599,-0.264 3.96,-0.792 1.58398,-0.52799 2.92798,-1.03199 4.032,-1.512 l 1.584,-0.792 m 12.96,4.608 c -0.096,1.104 -0.52803,2.064 -1.296,2.88 -0.72003,0.768 -1.32003,1.152 -1.8,1.152 -0.28803,0 -0.57603,-0.048 -0.864,-0.144 -0.24003,-0.096 -0.48003,-0.264 -0.72,-0.504 -0.19203,-0.288 -0.38403,-0.528 -0.576,-0.72 -0.14403,-0.24 -0.28803,-0.576 -0.432,-1.008 -0.096,-0.432 -0.19203,-0.768 -0.288,-1.008 -0.096,-0.288 -0.19203,-0.696 -0.288,-1.224 -0.096,-0.528 -0.16803,-0.912 -0.216,-1.152 -3e-5,-0.24 -0.048,-0.62399 -0.144,-1.152 -0.096,-0.52799 -0.14403,-0.86399 -0.144,-1.008 -1.53603,1.776 -3.81602,3.504 -6.84,5.184 -2.97602,1.632 -5.52002,2.448 -7.632,2.448 -1.34401,0 -2.95201,-0.216 -4.824,-0.648 -1.87201,-0.432 -3.24001,-0.96 -4.104,-1.584 -1.488,-1.104 -2.232,-3.456 -2.232,-7.056 0,-2.11199 0.6,-3.93599 1.8,-5.472 1.19999,-1.53598 3.35999,-3.07198 6.48,-4.608 3.50399,-1.77598 6.79198,-2.66398 9.864,-2.664 1.34398,2e-5 2.44798,0.16802 3.312,0.504 0.91198,0.33602 1.60797,0.74402 2.088,1.224 0.52797,0.43202 0.81597,0.64802 0.864,0.648 0.76797,0.14402 1.43997,0.45602 2.016,0.936 -3e-5,-3.16798 -0.14403,-5.80798 -0.432,-7.92 -0.24003,-2.15997 -0.60003,-3.74397 -1.08,-4.752 -0.48003,-1.00797 -0.96003,-1.70397 -1.44,-2.088 -0.48003,-0.38397 -1.05602,-0.57597 -1.728,-0.576 -2.30402,3e-5 -4.80002,0.45603 -7.488,1.368 -2.64001,0.91203 -5.04001,1.84803 -7.2,2.808 -2.11201,0.91203 -3.64801,1.36803 -4.608,1.368 -1.2,3e-5 -1.8,-0.55197 -1.8,-1.656 0,-0.67197 0.144,-1.27197 0.432,-1.8 0.288,-0.57597 0.624,-1.05597 1.008,-1.44 0.432,-0.38397 1.07999,-0.76797 1.944,-1.152 0.91199,-0.43197 1.72799,-0.76797 2.448,-1.008 0.76799,-0.28797 1.87199,-0.67196 3.312,-1.152 1.43999,-0.52796 2.68799,-0.98396 3.744,-1.368 2.87998,-1.00796 5.39998,-1.51196 7.56,-1.512 3.88797,4e-5 6.79197,1.82404 8.712,5.472 0.86397,1.63203 1.36797,3.12003 1.512,4.464 0.19197,1.34403 0.33597,5.25602 0.432,11.736 0.096,6.09601 0.31197,10.82401 0.648,14.184"
         style="font-size:72px;font-style:normal;font-variant:normal;font-weight:bold;font-stretch:normal;text-align:start;line-height:125%;letter-spacing:0px;word-spacing:0px;writing-mode:lr-tb;text-anchor:start;fill:#000000;fill-opacity:1;stroke:none;font-family:Purisa;-inkscape-font-specification:Purisa Bold"
         id="path5334"
         inkscape:connector-curvature="0" />
      <path
         d="m 453.64902,170.73877 c -1e-5,-3.50394 0.14399,-6.19194 0.432,-8.064 0.28799,-1.87193 0.62399,-3.04793 1.008,-3.528 0.43199,-0.52793 1.00799,-0.79193 1.728,-0.792 1.15199,7e-5 1.84799,0.48007 2.088,1.44 0.23999,1.00807 0.74399,7.12806 1.512,18.36 0.81598,11.23204 1.55998,22.15203 2.232,32.76 0.71998,10.60801 1.07998,16.032 1.08,16.272 -2e-5,1.68 -0.91202,2.52 -2.736,2.52 -1.63201,0 -2.68801,-0.984 -3.168,-2.952 -0.43201,-2.016 -0.98401,-7.87199 -1.656,-17.568 -0.76801,-10.22397 -1.46401,-19.12796 -2.088,-26.712 -0.28801,-4.03195 -0.43201,-7.94395 -0.432,-11.736"
         style="font-size:72px;font-style:normal;font-variant:normal;font-weight:bold;font-stretch:normal;text-align:start;line-height:125%;letter-spacing:0px;word-spacing:0px;writing-mode:lr-tb;text-anchor:start;fill:#000000;fill-opacity:1;stroke:none;font-family:Purisa;-inkscape-font-specification:Purisa Bold"
         id="path5336"
         inkscape:connector-curvature="0" />
      <path
         d="m 516.17211,205.60522 c 0.84134,-0.19639 1.37661,0.19619 1.60581,1.17777 0.25095,1.07511 -0.0667,2.77586 -0.95297,5.10226 -0.89726,2.27969 -1.88178,4.18542 -2.95356,5.71719 -4.18765,5.70955 -9.06267,9.21363 -14.62506,10.51222 -4.58085,1.06944 -9.13773,0.23559 -13.6707,-2.50153 -4.53298,-2.73711 -7.53605,-7.26083 -9.00926,-13.57115 -0.41467,-1.77622 -0.5559,-3.54236 -0.42367,-5.29843 0.30502,-3.1272 1.79808,-6.65502 4.47919,-10.58346 2.67017,-3.97511 5.57116,-6.32825 8.70296,-7.05944 0.84136,-0.19638 2.09641,-0.41549 3.76518,-0.65721 2.56776,-0.40226 4.40401,-0.55985 5.50877,-0.47277 1.14054,0.0295 2.49227,0.33007 4.05518,0.90168 1.72491,0.63244 3.40784,1.71826 5.04878,3.25748 1.62997,1.49255 2.6032,2.91657 2.9197,4.27209 0.41464,1.77626 -0.004,3.25421 -1.2569,4.43385 -1.25264,1.17969 -3.52658,2.52386 -6.82186,4.03252 -4.32676,1.94666 -8.86465,3.62221 -13.6137,5.02664 l -6.03449,1.70456 0.42559,1.82298 c 0.40376,1.7295 1.13236,3.16135 2.18581,4.29554 1.10018,1.12331 2.68416,2.20759 4.75196,3.25285 2.95752,1.47834 5.72172,1.91739 8.29261,1.3172 2.05666,-0.48015 4.08835,-1.59525 6.09506,-3.34529 1.99575,-1.79677 3.61366,-3.62856 4.85375,-5.49538 1.28677,-1.8777 2.5362,-3.59882 3.74828,-5.16337 1.24785,-1.62215 2.22236,-2.51508 2.92354,-2.6788 m -11.63107,-8.96652 c -0.0873,-0.37391 -1.33938,-1.09206 -3.75617,-2.15447 -1.7577,-0.77259 -2.99648,-1.22275 -3.71633,-1.35047 -0.67316,-0.13855 -1.59402,-0.0714 -2.76257,0.20134 -2.33717,0.54566 -4.02301,1.1364 -5.05753,1.77221 -0.99872,0.57823 -1.96932,1.59347 -2.91181,3.04575 -2.81661,4.40368 -4.10487,7.11968 -3.86479,8.148 l -0.0865,-0.0537 c 0.19788,0.003 0.62402,-0.0718 1.27844,-0.22453 4.53406,-1.0585 10.63549,-3.32088 18.30428,-6.78713 1.92263,-0.84315 2.78028,-1.7088 2.57297,-2.59696"
         style="font-size:72px;font-style:normal;font-variant:normal;font-weight:bold;font-stretch:normal;text-align:start;line-height:125%;letter-spacing:0px;word-spacing:0px;writing-mode:lr-tb;text-anchor:start;fill:#000000;fill-opacity:1;stroke:none;font-family:Purisa;-inkscape-font-specification:Purisa Bold"
         id="path5338"
         inkscape:connector-curvature="0" />
      <path
         style="fill:#ffd700;fill-opacity:1"
         inkscape:connector-curvature="0"
         d="m 207.55441,267.55817 c 14.46113,-2.56638 28.94051,-5.05071 43.46509,-7.27125 29.06275,-4.74735 58.37425,-7.58548 87.63947,-10.71968 27.88495,-3.64067 55.91483,-5.92815 83.86284,-9.00852 25.62071,-2.89823 51.3736,-4.13246 77.13344,-4.85365 17.68026,-0.4283 35.3659,-0.47233 53.04978,-0.61789 0,0 -11.60972,8.4339 -11.60972,8.4339 l 0,0 c -17.47176,-0.16858 -34.94646,-0.13682 -52.41616,0.20332 -25.66931,0.64799 -51.33452,1.85572 -76.85884,4.78979 -27.90441,3.05648 -55.89131,5.3148 -83.73635,8.90903 -29.34858,3.10908 -58.7468,5.97942 -87.85422,10.96494 -10.48517,1.71824 -20.92986,3.51329 -31.35039,5.5877 -3.49395,0.69554 -7.02086,1.23911 -10.48528,2.06934 -0.88138,0.21121 -1.72711,0.5503 -2.59066,0.82545 0,0 11.751,-9.31248 11.751,-9.31248 z"
         id="path2993" />
      <g
         style="fill:#ffd700;fill-opacity:1;stroke:#ffd700;stroke-opacity:1"
         transform="matrix(0.48818774,0,0,0.56935801,171.47394,-56.452951)"
         id="g3840">
        <path
           style="fill:#ffd700;fill-opacity:1;stroke:#ffd700;stroke-opacity:1"
           inkscape:connector-curvature="0"
           d="m 425.77725,445.71184 c -3.07408,0.0791 -6.23446,0.49834 -9.45265,1.27414 -20.59642,4.96514 -35.20248,22.9141 -32.64622,40.08642 2.55627,17.17234 21.318,27.06658 41.91443,22.10145 20.59642,-4.96514 35.20248,-22.9141 32.64622,-40.08642 -2.15685,-14.48915 -15.86172,-23.80273 -32.46178,-23.37559 z m 8.11544,11.61429 c 4.24367,-1.5e-4 7.7256,1.11514 9.82154,3.38137 5.58917,6.04327 -0.78479,18.20304 -14.24815,27.14899 -13.46334,8.94597 -28.90145,11.28685 -34.49063,5.24358 -5.58918,-6.04327 0.78479,-18.20304 14.24814,-27.14899 8.41459,-5.59123 17.59632,-8.62472 24.6691,-8.62495 z"
           id="path2999" />
        <path
           style="fill:#ffd700;stroke:#ffd700;stroke-width:5.41875266999999994;stroke-linecap:round;stroke-linejoin:miter;stroke-miterlimit:4;stroke-opacity:1;stroke-dasharray:none;fill-opacity:1"
           d="m 456.0476,471.10635 1.1e-4,-163.06805"
           id="path3001"
           inkscape:connector-curvature="0" />
        <path
           style="fill:#ffd700;stroke:#ffd700;stroke-width:1.08158386000000006px;stroke-linecap:butt;stroke-linejoin:miter;stroke-opacity:1;fill-opacity:1"
           d="m 458.20001,308.19905 c 3.44934,5.43455 7.55578,10.4516 12.20136,14.90703 4.45172,4.26951 9.38408,8.01363 14.4995,11.46022 5.4959,3.70295 11.22009,7.07688 16.50853,11.07052 5.05843,3.81994 9.72214,8.22379 13.41233,13.37764 5.74067,8.01764 8.98879,17.79399 9.18746,27.65291 1.18228,8.80488 -0.33976,17.95426 -4.30894,25.90217 -1.94382,3.89232 -4.46007,7.49818 -7.4427,10.6656 2.11074,-4.53071 3.31641,-9.48086 3.52549,-14.47474 0.23745,-5.6714 -0.80226,-11.34893 -2.58794,-16.73712 -2.3346,-7.04454 -5.9516,-13.65821 -10.5921,-19.44973 -5.4048,-6.7454 -12.18955,-12.36388 -19.76155,-16.53247 -7.26461,-3.99937 -15.25712,-6.67169 -23.46628,-7.84604 l -1.17516,-39.99599"
           id="path3814"
           inkscape:path-effect="#path-effect3816"
           inkscape:original-d="m 458.20001,308.19905 c 3.67976,6.56895 7.74904,11.02521 12.20136,14.90703 4.4523,3.8818 9.28764,7.18913 14.4995,11.46022 4.94756,4.0545 10.98606,7.37025 16.50853,11.07052 5.52247,3.70027 10.52891,7.78507 13.41233,13.37764 5.2784,9.21763 7.23293,16.2805 9.18746,27.65291 -1.4363,8.63406 -0.79521,17.13344 -4.30894,25.90217 -1.64993,4.22857 -3.85384,7.37974 -7.4427,10.6656 1.17518,-4.82491 3.45829,-9.7845 3.52549,-14.47474 0.2453,-5.57904 -0.75584,-11.15808 -2.58794,-16.73712 -2.39141,-8.83478 -6.51819,-13.50991 -10.5921,-19.44973 -6.14284,-8.97867 -12.14719,-11.59401 -19.76155,-16.53247 -6.42833,-4.16926 -14.76127,-4.65834 -23.46628,-7.84604 -0.39171,-13.332 -0.78345,-26.66399 -1.17516,-39.99599 z"
           inkscape:connector-curvature="0"
           sodipodi:nodetypes="cssscccccccscc" />
      </g>
      <path
         inkscape:connector-curvature="0"
         id="path5350"
         d="m 512.29165,208.25882 c -3.77709,-0.48123 -7.25739,2.39161 -7.79655,6.41371 -0.18464,1.37742 0.002,2.7154 0.47861,3.89333 1.16795,-1.22527 2.29772,-2.40763 3.3991,-3.46369 1.52966,-1.47681 2.68931,-2.25823 3.44728,-2.33038 0.90948,-0.0865 1.40383,0.39107 1.51101,1.41629 0.11729,1.12289 -0.46245,2.79295 -1.70835,5.03168 -0.72797,1.27421 -1.47042,2.41016 -2.22599,3.41992 0.30734,0.0868 0.61664,0.14297 0.94243,0.18448 3.77709,0.48123 7.29017,-2.38742 7.82934,-6.40954 0.53915,-4.0221 -2.09977,-7.67457 -5.87688,-8.1558 z"
         style="fill:#ff5555;fill-opacity:1;stroke:#ffff00;stroke-width:0;stroke-linecap:round;stroke-miterlimit:4;stroke-opacity:1;stroke-dasharray:none" />
    </g>
  </g>
</svg>
